<svg width="527.3498413085938px" height="129.2px" xmlns="http://www.w3.org/2000/svg" viewBox="-13.674920654296898 10.400000000000006 527.3498413085938 129.2" style="background: rgba(0, 0, 0, 0);" preserveAspectRatio="xMidYMid"><defs><filter id="editing-golden" x="-100%" y="-100%" width="300%" height="300%"><feFlood flood-color="red" result="flood"></feFlood><feFlood flood-color="red" result="flood-light"></feFlood><feComposite operator="in" in="flood" in2="SourceAlpha" result="flood-comp"></feComposite><feGaussianBlur in="flood-comp" stdDeviation="3" result="blur"></feGaussianBlur><feOffset in="blur" dy="3" result="offset-blur"></feOffset><feComponentTransfer in="offset-blur" result="comp-blur"><feFuncA type="linear" slope="0.7" intercept="-0.1"></feFuncA></feComponentTransfer><feSpecularLighting surfaceScale="200" specularConstant="20" specularExponent="1" lighting-color="#fff" in="blur" result="specular"><fePointLight x="-250" y="-250" z="3500"></fePointLight></feSpecularLighting><feComponentTransfer in="specular" result="inspecular"><feFuncA type="linear" slope="-1" intercept="1"></feFuncA></feComponentTransfer><feComposite operator="in" in="flood-light" in2="inspecular" result="inspecular2"></feComposite><feComposite operator="in" in="inspecular2" in2="SourceAlpha" result="light"></feComposite><feMerge><feMergeNode in="comp-blur"></feMergeNode><feMergeNode in="SourceGraphic"></feMergeNode><feMergeNode in="light"></feMergeNode></feMerge></filter></defs><g filter="url(#editing-golden)"><g transform="translate(65.70772540569305, 101.56000137329102)"><path d="M50.62-27.39L50.62-27.39L50.62-27.39Q48.26-26.43 46.56-26.43L46.56-26.43L46.56-26.43Q44.86-26.43 44.86-27.14L44.86-27.14L44.86-27.14Q44.86-27.58 46.75-27.65L46.75-27.65L46.75-27.65Q48.64-27.71 49.47-28.10L49.47-28.10L49.47-28.10Q51.90-29.38 51.90-31.87L51.90-31.87L51.90-31.87Q51.90-33.15 51.20-34.56L51.20-34.56L51.20-34.56Q49.15-38.21 41.28-38.21L41.28-38.21L41.28-38.21Q36.74-38.21 32.19-36.83L32.19-36.83L32.19-36.83Q27.65-35.46 24.58-32.61L24.58-32.61L24.58-32.61Q21.50-29.76 21.50-27.33L21.50-27.33L21.50-27.33Q21.50-23.62 28.86-21.89L28.86-21.89L36.42-20.48L36.42-20.48Q40.96-19.65 43.20-18.18L43.20-18.18L43.20-18.18Q46.14-16.38 46.14-13.06L46.14-13.06L46.14-13.06Q46.14-11.71 45.70-10.18L45.70-10.18L45.70-10.18Q43.65-3.26 35.14 0.38L35.14 0.38L35.14 0.38Q28.03 3.52 18.37 3.52L18.37 3.52L18.37 3.52Q15.62 3.52 13.57 3.26L13.57 3.26L13.57 3.26Q15.62 4.42 18.94 5.25L18.94 5.25L18.94 5.25Q19.20 5.31 19.20 5.50L19.20 5.50L19.20 5.50Q19.20 6.08 17.86 6.08L17.86 6.08L17.86 6.08Q15.23 6.08 11.33 2.94L11.33 2.94L11.33 2.94Q6.02 2.11 3.39 0L3.39 0L3.39 0Q1.73-1.34 0.32-3.97L0.32-3.97L0.32-3.97Q-1.09-6.59-1.09-8.70L-1.09-8.70L-1.09-8.70Q-1.09-10.82-0.26-12.22L-0.26-12.22L-0.26-12.22Q1.66-15.62 4.61-15.62L4.61-15.62L4.61-15.62Q6.85-15.62 7.23-11.84L7.23-11.84L7.23-11.84Q8.13-4.54 8.45-3.52L8.45-3.52L8.45-3.52Q9.41-0.38 11.71 1.79L11.71 1.79L11.71 1.79Q14.40 2.37 17.54 2.37L17.54 2.37L17.54 2.37Q24.45 2.37 31.10-0.38L31.10-0.38L31.10-0.38Q37.76-3.14 40.70-8.19L40.70-8.19L40.70-8.19Q41.92-10.18 41.92-11.71L41.92-11.71L41.92-11.71Q41.92-14.72 36.61-16.38L36.61-16.38L25.34-18.94L25.34-18.94Q21.89-19.78 19.81-21.70L19.81-21.70L19.81-21.70Q17.73-23.62 17.73-26.11L17.73-26.11L17.73-26.11Q17.73-29.95 22.53-33.79L22.53-33.79L22.53-33.79Q26.18-36.74 31.46-38.37L31.46-38.37L31.46-38.37Q36.74-40 41.82-40L41.82-40L41.82-40Q46.91-40 50.24-38.53L50.24-38.53L50.24-38.53Q54.53-36.54 54.53-32.74L54.53-32.74L54.53-32.74Q54.53-28.93 50.62-27.39ZM9.41 1.15L9.41 1.15L9.41 1.15Q5.70-2.94 4.67-10.05L4.67-10.05L4.67-10.05Q4.10-14.08 3.58-14.08L3.58-14.08L3.58-14.08Q3.07-14.08 2.62-13.79L2.62-13.79L2.62-13.79Q2.18-13.50 1.73-12.54L1.73-12.54L1.73-12.54Q1.28-11.58 1.28-10.05L1.28-10.05L1.28-10.05Q1.28-5.12 4.74-1.60L4.74-1.60L4.74-1.60Q6.46 0.19 9.41 1.15ZM72-14.46L72-14.46L72-14.46Q72-9.28 66.08-4.64L66.08-4.64L66.08-4.64Q60.16 0 55.81 0L55.81 0L55.81 0Q52.93 0 51.62-0.38L51.62-0.38L51.62-0.38Q50.30-0.77 48.70-2.69L48.70-2.69L48.70-2.69Q47.62-1.79 45.76 1.89L45.76 1.89L45.76 1.89Q43.90 5.57 43.90 8.19L43.90 8.19L43.90 8.19Q43.90 9.41 45.12 11.39L45.12 11.39L45.12 11.39Q45.25 11.71 44.93 11.94L44.93 11.94L44.93 11.94Q44.61 12.16 44.45 12.16L44.45 12.16L44.45 12.16Q44.29 12.16 44.16 12.10L44.16 12.10L44.16 12.10Q41.47 10.62 41.47 6.37L41.47 6.37L41.47 6.37Q41.47 2.11 48.54-8.35L48.54-8.35L48.54-8.35Q55.62-18.82 58.30-19.71L58.30-19.71L58.30-19.71Q58.94-19.84 59.14-19.84L59.14-19.84L59.14-19.84Q60.22-19.84 60.22-17.47L60.22-17.47L60.22-17.47Q60.86-18.11 62.85-18.69L62.85-18.69L62.85-18.69Q65.28-19.33 66.30-19.33L66.30-19.33L66.30-19.33Q68.61-19.33 70.30-18.02L70.30-18.02L70.30-18.02Q72-16.70 72-14.46ZM68.74-15.10L68.74-15.10L68.74-15.10Q68.74-17.54 65.86-17.54L65.86-17.54L65.86-17.54Q62.98-17.54 60.61-16.32L60.61-16.32L60.61-16.32Q59.52-15.81 54.59-10.69L54.59-10.69L54.59-10.69Q49.66-5.57 49.66-4.10L49.66-4.10L49.66-4.10Q49.66-2.94 51.42-2.37L51.42-2.37L51.42-2.37Q53.18-1.79 54.98-1.79L54.98-1.79L54.98-1.79Q58.50-1.79 63.62-5.79L63.62-5.79L63.62-5.79Q68.74-9.79 68.74-15.10ZM85.89-26.11L85.89-26.11Q86.85-26.11 87.71-25.50L87.71-25.50L87.71-25.50Q88.58-24.90 88.58-24.06L88.58-24.06L88.58-24.06Q88.58-23.23 87.78-22.62L87.78-22.62L87.78-22.62Q86.98-22.02 86.02-22.02L86.02-22.02L86.02-22.02Q85.06-22.02 84.26-22.72L84.26-22.72L84.26-22.72Q83.46-23.42 83.46-24.32L83.46-24.32L83.46-24.32Q83.46-26.11 85.89-26.11L85.89-26.11ZM74.30 0.70L74.30 0.70L74.30 0.70Q71.04 0.70 71.04-3.52L71.04-3.52L71.04-3.52Q71.04-6.98 74.82-13.09L74.82-13.09L74.82-13.09Q78.59-19.20 80.90-19.26L80.90-19.26L80.90-19.26Q81.54-19.26 82.34-18.75L82.34-18.75L82.34-18.75Q83.14-18.24 83.14-17.73L83.14-17.73L83.14-17.73Q82.82-17.28 82.37-16.74L82.37-16.74L82.37-16.74Q81.92-16.19 81.41-15.55L81.41-15.55L81.41-15.55Q80.90-14.91 80-13.73L80-13.73L80-13.73Q79.10-12.54 78.27-11.46L78.27-11.46L78.27-11.46Q73.47-5.25 73.47-2.91L73.47-2.91L73.47-2.91Q73.47-0.58 75.07-0.58L75.07-0.58L75.07-0.58Q76.42-0.58 78.72-2.05L78.72-2.05L78.72-2.05Q84.10-5.38 87.23-9.34L87.23-9.34L87.23-9.34Q88.38-10.82 88.80-10.82L88.80-10.82L88.80-10.82Q89.22-10.82 89.22-10.30L89.22-10.30L89.22-10.30Q89.22-9.79 87.74-8.26L87.74-8.26L87.74-8.26Q86.27-6.72 85.41-5.82L85.41-5.82L85.41-5.82Q84.54-4.93 84.22-4.64L84.22-4.64L84.22-4.64Q83.90-4.35 83.04-3.55L83.04-3.55L83.04-3.55Q82.18-2.75 81.73-2.43L81.73-2.43L81.73-2.43Q81.28-2.11 80.45-1.47L80.45-1.47L80.45-1.47Q79.62-0.83 78.98-0.54L78.98-0.54L78.98-0.54Q78.34-0.26 77.50 0.13L77.50 0.13L77.50 0.13Q76.16 0.70 74.30 0.70ZM91.33 0.83L91.33 0.83L91.33 0.83Q90.62 0.83 90.05 0.64L90.05 0.64L90.05 0.64Q85.95-0.51 85.95-3.97L85.95-3.97L85.95-3.97Q85.95-8.45 91.58-14.34L91.58-14.34L91.58-14.34Q97.22-20.22 101.70-20.22L101.70-20.22L101.70-20.22Q103.17-20.22 104.10-19.42L104.10-19.42L104.10-19.42Q105.02-18.62 105.02-17.25L105.02-17.25L105.02-17.25Q105.02-15.87 104.19-14.37L104.19-14.37L104.19-14.37Q103.36-12.86 101.70-12.86L101.70-12.86L101.70-12.86Q100.03-12.86 100.03-13.89L100.03-13.89L100.03-13.89Q100.03-14.59 100.90-16.03L100.90-16.03L100.90-16.03Q101.76-17.47 101.76-17.57L101.76-17.57L101.76-17.57Q101.76-17.66 101.57-17.66L101.57-17.66L101.57-17.66Q99.78-17.47 96.67-15.10L96.67-15.10L96.67-15.10Q93.57-12.74 92.42-11.14L92.42-11.14L89.92-7.49L89.92-7.49Q89.28-6.46 88.99-5.06L88.99-5.06L88.99-5.06Q88.70-3.65 88.70-2.94L88.70-2.94L88.70-2.94Q88.70-2.24 89.50-1.34L89.50-1.34L89.50-1.34Q90.30-0.45 91.78-0.45L91.78-0.45L91.78-0.45Q94.98-0.45 99.71-4.19L99.71-4.19L99.71-4.19Q104.45-7.94 107.01-11.33L107.01-11.33L107.01-11.33Q107.33-11.71 107.78-11.71L107.78-11.71L107.78-11.71Q108.22-11.71 108.22-11.46L108.22-11.46L108.22-11.46Q108.22-11.20 107.90-10.82L107.90-10.82L107.90-10.82Q104.38-6.14 99.49-2.66L99.49-2.66L99.49-2.66Q94.59 0.83 91.33 0.83ZM100.99 7.42L100.99 7.42L100.99 7.42Q104.06 11.26 106.30 11.26L106.30 11.26L106.30 11.26Q109.95 11.26 114.18 5.44L114.18 5.44L114.18 5.44Q117.25 1.15 120.19-5.38L120.19-5.38L122.62-11.26L113.22-3.90L113.22-3.90Q108.86-0.51 106.24-0.51L106.24-0.51L106.24-0.51Q104.83-0.51 104-1.47L104-1.47L104-1.47Q103.17-2.43 103.17-3.65L103.17-3.65L103.17-3.65Q103.17-6.40 107.90-12.70L107.90-12.70L107.90-12.70Q112.64-19.01 114.82-19.01L114.82-19.01L114.82-19.01Q116.99-19.01 116.99-17.54L116.99-17.54L116.99-17.54Q116.99-16.96 111.33-10.91L111.33-10.91L111.33-10.91Q105.66-4.86 105.66-2.75L105.66-2.75L105.66-2.75Q105.66-1.92 106.75-1.92L106.75-1.92L106.75-1.92Q108.80-1.92 114.98-6.72L114.98-6.72L114.98-6.72Q121.15-11.52 124.29-14.66L124.29-14.66L124.29-14.66Q124.99-15.49 126.27-17.15L126.27-17.15L126.27-17.15Q127.49-18.56 128.96-18.56L128.96-18.56L128.96-18.56Q130.43-18.56 130.43-17.15L130.43-17.15L130.43-17.15Q130.43-16.90 127.55-12.61L127.55-12.61L127.55-12.61Q124.67-8.32 124.54-8.06L124.54-8.06L124.54-8.06Q122.56-4.22 118.46 3.14L118.46 3.14L118.46 3.14Q112.26 13.12 106.05 13.12L106.05 13.12L106.05 13.12Q104 13.12 102.46 11.36L102.46 11.36L102.46 11.36Q100.93 9.60 100.99 7.42ZM191.55-27.39L191.55-27.39L191.55-27.39Q189.18-26.43 187.49-26.43L187.49-26.43L187.49-26.43Q185.79-26.43 185.79-27.14L185.79-27.14L185.79-27.14Q185.79-27.58 187.68-27.65L187.68-27.65L187.68-27.65Q189.57-27.71 190.40-28.10L190.40-28.10L190.40-28.10Q192.83-29.38 192.83-31.87L192.83-31.87L192.83-31.87Q192.83-33.15 192.13-34.56L192.13-34.56L192.13-34.56Q190.08-38.21 182.21-38.21L182.21-38.21L182.21-38.21Q177.66-38.21 173.12-36.83L173.12-36.83L173.12-36.83Q168.58-35.46 165.50-32.61L165.50-32.61L165.50-32.61Q162.43-29.76 162.43-27.33L162.43-27.33L162.43-27.33Q162.43-23.62 169.79-21.89L169.79-21.89L177.34-20.48L177.34-20.48Q181.89-19.65 184.13-18.18L184.13-18.18L184.13-18.18Q187.07-16.38 187.07-13.06L187.07-13.06L187.07-13.06Q187.07-11.71 186.62-10.18L186.62-10.18L186.62-10.18Q184.58-3.26 176.06 0.38L176.06 0.38L176.06 0.38Q168.96 3.52 159.30 3.52L159.30 3.52L159.30 3.52Q156.54 3.52 154.50 3.26L154.50 3.26L154.50 3.26Q156.54 4.42 159.87 5.25L159.87 5.25L159.87 5.25Q160.13 5.31 160.13 5.50L160.13 5.50L160.13 5.50Q160.13 6.08 158.78 6.08L158.78 6.08L158.78 6.08Q156.16 6.08 152.26 2.94L152.26 2.94L152.26 2.94Q146.94 2.11 144.32 0L144.32 0L144.32 0Q142.66-1.34 141.25-3.97L141.25-3.97L141.25-3.97Q139.84-6.59 139.84-8.70L139.84-8.70L139.84-8.70Q139.84-10.82 140.67-12.22L140.67-12.22L140.67-12.22Q142.59-15.62 145.54-15.62L145.54-15.62L145.54-15.62Q147.78-15.62 148.16-11.84L148.16-11.84L148.16-11.84Q149.06-4.54 149.38-3.52L149.38-3.52L149.38-3.52Q150.34-0.38 152.64 1.79L152.64 1.79L152.64 1.79Q155.33 2.37 158.46 2.37L158.46 2.37L158.46 2.37Q165.38 2.37 172.03-0.38L172.03-0.38L172.03-0.38Q178.69-3.14 181.63-8.19L181.63-8.19L181.63-8.19Q182.85-10.18 182.85-11.71L182.85-11.71L182.85-11.71Q182.85-14.72 177.54-16.38L177.54-16.38L166.27-18.94L166.27-18.94Q162.82-19.78 160.74-21.70L160.74-21.70L160.74-21.70Q158.66-23.62 158.66-26.11L158.66-26.11L158.66-26.11Q158.66-29.95 163.46-33.79L163.46-33.79L163.46-33.79Q167.10-36.74 172.38-38.37L172.38-38.37L172.38-38.37Q177.66-40 182.75-40L182.75-40L182.75-40Q187.84-40 191.17-38.53L191.17-38.53L191.17-38.53Q195.46-36.54 195.46-32.74L195.46-32.74L195.46-32.74Q195.46-28.93 191.55-27.39ZM150.34 1.15L150.34 1.15L150.34 1.15Q146.62-2.94 145.60-10.05L145.60-10.05L145.60-10.05Q145.02-14.08 144.51-14.08L144.51-14.08L144.51-14.08Q144-14.08 143.55-13.79L143.55-13.79L143.55-13.79Q143.10-13.50 142.66-12.54L142.66-12.54L142.66-12.54Q142.21-11.58 142.21-10.05L142.21-10.05L142.21-10.05Q142.21-5.12 145.66-1.60L145.66-1.60L145.66-1.60Q147.39 0.19 150.34 1.15ZM185.22 7.42L185.22 7.42L185.22 7.42Q188.29 11.26 190.53 11.26L190.53 11.26L190.53 11.26Q194.18 11.26 198.40 5.44L198.40 5.44L198.40 5.44Q201.47 1.15 204.42-5.38L204.42-5.38L206.85-11.26L197.44-3.90L197.44-3.90Q193.09-0.51 190.46-0.51L190.46-0.51L190.46-0.51Q189.06-0.51 188.22-1.47L188.22-1.47L188.22-1.47Q187.39-2.43 187.39-3.65L187.39-3.65L187.39-3.65Q187.39-6.40 192.13-12.70L192.13-12.70L192.13-12.70Q196.86-19.01 199.04-19.01L199.04-19.01L199.04-19.01Q201.22-19.01 201.22-17.54L201.22-17.54L201.22-17.54Q201.22-16.96 195.55-10.91L195.55-10.91L195.55-10.91Q189.89-4.86 189.89-2.75L189.89-2.75L189.89-2.75Q189.89-1.92 190.98-1.92L190.98-1.92L190.98-1.92Q193.02-1.92 199.20-6.72L199.20-6.72L199.20-6.72Q205.38-11.52 208.51-14.66L208.51-14.66L208.51-14.66Q209.22-15.49 210.50-17.15L210.50-17.15L210.50-17.15Q211.71-18.56 213.18-18.56L213.18-18.56L213.18-18.56Q214.66-18.56 214.66-17.15L214.66-17.15L214.66-17.15Q214.66-16.90 211.78-12.61L211.78-12.61L211.78-12.61Q208.90-8.32 208.77-8.06L208.77-8.06L208.77-8.06Q206.78-4.22 202.69 3.14L202.69 3.14L202.69 3.14Q196.48 13.12 190.27 13.12L190.27 13.12L190.27 13.12Q188.22 13.12 186.69 11.36L186.69 11.36L186.69 11.36Q185.15 9.60 185.22 7.42ZM243.07-0.77L243.07-0.77L243.07-0.77Q238.72-0.77 238.72-4.80L238.72-4.80L238.72-4.80Q238.72-7.10 240.77-11.10L240.77-11.10L240.77-11.10Q242.82-15.10 245.06-17.86L245.06-17.86L245.06-17.86Q241.09-15.94 235.90-10.91L235.90-10.91L235.90-10.91Q230.72-5.89 228.67-0.38L228.67-0.38L228.67-0.38Q228.35 0.13 227.58 0.13L227.58 0.13L227.58 0.13Q226.05 0.13 226.05-1.60L226.05-1.60L226.05-1.60Q226.69-5.12 228.93-9.66L228.93-9.66L228.93-9.66Q229.63-11.14 233.09-18.24L233.09-18.24L233.09-18.24Q228.10-14.98 224.61-11.23L224.61-11.23L224.61-11.23Q221.12-7.49 218.14-3.71L218.14-3.71L218.14-3.71Q215.17 0.06 214.78 0.06L214.78 0.06L214.78 0.06Q213.95 0.06 213.34-0.70L213.34-0.70L213.34-0.70Q212.74-1.47 212.74-2.24L212.74-2.24L212.74-2.24Q212.74-3.39 216.06-10.69L216.06-10.69L212.22-6.66L212.22-6.66Q210.82-5.25 210.46-5.25L210.46-5.25L210.46-5.25Q210.11-5.25 210.11-5.66L210.11-5.66L210.11-5.66Q210.11-6.08 210.62-6.59L210.62-6.59L210.62-6.59Q212.99-8.96 214.85-11.33L214.85-11.33L214.85-11.33Q216.70-13.70 220.99-19.78L220.99-19.78L220.99-19.78Q221.70-20.74 222.98-20.74L222.98-20.74L222.98-20.74Q224.26-20.74 224.26-19.52L224.26-19.52L224.26-19.52Q224.26-19.07 220.86-13.28L220.86-13.28L220.86-13.28Q217.47-7.49 217.09-6.02L217.09-6.02L217.09-6.02Q219.71-8.90 224.96-13.76L224.96-13.76L224.96-13.76Q232.83-21.06 235.33-21.06L235.33-21.06L235.33-21.06Q236.10-21.06 236.74-20.61L236.74-20.61L236.74-20.61Q237.38-20.16 237.38-19.62L237.38-19.62L237.38-19.62Q237.38-19.07 234.88-14.78L234.88-14.78L234.88-14.78Q232.45-10.37 232.19-9.54L232.19-9.54L232.19-9.54Q239.30-15.49 239.30-15.55L239.30-15.55L239.30-15.55Q245.31-20.22 247.94-20.22L247.94-20.22L247.94-20.22Q248.70-20.22 249.38-19.74L249.38-19.74L249.38-19.74Q250.05-19.26 250.05-18.62L250.05-18.62L250.05-18.62Q250.05-18.50 245.89-13.22L245.89-13.22L245.89-13.22Q241.73-7.94 241.22-4.54L241.22-4.54L241.22-4.54Q241.09-3.39 241.66-2.82L241.66-2.82L241.66-2.82Q242.24-2.24 243.74-2.24L243.74-2.24L243.74-2.24Q245.25-2.24 248.16-4.32L248.16-4.32L248.16-4.32Q251.07-6.40 254.08-9.92L254.08-9.92L254.08-9.92Q255.23-11.20 255.65-11.20L255.65-11.20L255.65-11.20Q256.06-11.20 256.06-10.88L256.06-10.88L256.06-10.88Q256.06-10.43 255.49-9.86L255.49-9.86L255.49-9.86Q252.35-6.08 248.74-3.42L248.74-3.42L248.74-3.42Q245.12-0.77 243.07-0.77ZM276.99-14.46L276.99-14.46L276.99-14.46Q276.99-9.28 271.07-4.64L271.07-4.64L271.07-4.64Q265.15 0 260.80 0L260.80 0L260.80 0Q257.92 0 256.61-0.38L256.61-0.38L256.61-0.38Q255.30-0.77 253.70-2.69L253.70-2.69L253.70-2.69Q252.61-1.79 250.75 1.89L250.75 1.89L250.75 1.89Q248.90 5.57 248.90 8.19L248.90 8.19L248.90 8.19Q248.90 9.41 250.11 11.39L250.11 11.39L250.11 11.39Q250.24 11.71 249.92 11.94L249.92 11.94L249.92 11.94Q249.60 12.16 249.44 12.16L249.44 12.16L249.44 12.16Q249.28 12.16 249.15 12.10L249.15 12.10L249.15 12.10Q246.46 10.62 246.46 6.37L246.46 6.37L246.46 6.37Q246.46 2.11 253.54-8.35L253.54-8.35L253.54-8.35Q260.61-18.82 263.30-19.71L263.30-19.71L263.30-19.71Q263.94-19.84 264.13-19.84L264.13-19.84L264.13-19.84Q265.22-19.84 265.22-17.47L265.22-17.47L265.22-17.47Q265.86-18.11 267.84-18.69L267.84-18.69L267.84-18.69Q270.27-19.33 271.30-19.33L271.30-19.33L271.30-19.33Q273.60-19.33 275.30-18.02L275.30-18.02L275.30-18.02Q276.99-16.70 276.99-14.46ZM273.73-15.10L273.73-15.10L273.73-15.10Q273.73-17.54 270.85-17.54L270.85-17.54L270.85-17.54Q267.97-17.54 265.60-16.32L265.60-16.32L265.60-16.32Q264.51-15.81 259.58-10.69L259.58-10.69L259.58-10.69Q254.66-5.57 254.66-4.10L254.66-4.10L254.66-4.10Q254.66-2.94 256.42-2.37L256.42-2.37L256.42-2.37Q258.18-1.79 259.97-1.79L259.97-1.79L259.97-1.79Q263.49-1.79 268.61-5.79L268.61-5.79L268.61-5.79Q273.73-9.79 273.73-15.10ZM292.16-0.26L292.16-0.26L292.16-0.26Q288.38-0.26 288.38-4.67L288.38-4.67L288.38-4.67Q288.38-7.17 290.14-10.21L290.14-10.21L290.14-10.21Q291.90-13.25 294.46-17.34L294.46-17.34L294.46-17.34Q286.27-13.25 279.62-5.25L279.62-5.25L279.62-5.25Q275.90 0.32 275.26 0.32L275.26 0.32L275.26 0.32Q273.41 0.32 273.41-0.77L273.41-0.77L273.41-0.77Q273.41-1.34 274.18-2.82L274.18-2.82L274.18-2.82Q280.38-13.89 283.58-19.01L283.58-19.01L283.58-19.01Q291.20-31.23 294.34-32.26L294.34-32.26L294.34-32.26Q294.46-32.32 294.59-32.32L294.59-32.32L294.59-32.32Q295.42-32.32 295.74-30.98L295.74-30.98L295.74-30.98Q295.55-29.63 289.09-21.25L289.09-21.25L289.09-21.25Q282.37-12.74 281.47-10.11L281.47-10.11L281.47-10.11Q283.84-11.84 289.73-15.94L289.73-15.94L289.73-15.94Q296.06-20.35 298.11-20.35L298.11-20.35L298.11-20.35Q300.16-20.35 300.16-18.75L300.16-18.75L300.16-18.75Q300.16-18.50 300.13-18.40L300.13-18.40L300.13-18.40Q300.10-18.30 295.68-12.35L295.68-12.35L295.68-12.35Q291.26-6.40 291.26-3.58L291.26-3.58L291.26-3.58Q291.26-2.11 292.35-2.11L292.35-2.11L292.35-2.11Q295.81-2.24 302.72-10.43L302.72-10.43L302.72-10.43Q303.30-11.01 303.58-11.01L303.58-11.01L303.58-11.01Q303.87-11.01 303.87-10.62L303.87-10.62L303.87-10.62Q303.87-9.34 297.54-3.71L297.54-3.71L297.54-3.71Q293.57-0.26 292.16-0.26ZM317.76-13.57L317.76-13.57L317.76-13.57Q317.76-11.33 313.47-6.08L313.47-6.08L313.47-6.08Q308.42 0.13 304.83 0.13L304.83 0.13L303.81 0.13L303.81 0.13Q302.14 0.13 301.18-1.60L301.18-1.60L301.18-1.60Q300.42-2.82 300.42-4.29L300.42-4.29L300.42-4.29Q300.42-8.13 306.02-15.07L306.02-15.07L306.02-15.07Q311.62-22.02 315.07-22.02L315.07-22.02L315.07-22.02Q318.34-22.02 318.34-18.56L318.34-18.56L318.34-18.56Q318.34-17.66 318.02-16.26L318.02-16.26L318.02-16.26Q318.08-16.06 319.23-16.06L319.23-16.06L319.23-16.06Q320.38-16.06 322.75-17.28L322.75-17.28L322.75-17.28Q322.69-16.19 317.70-14.14L317.70-14.14L317.70-14.14Q317.76-13.89 317.76-13.57ZM313.60-16.90L313.60-16.90L313.60-16.90Q311.42-16.90 307.42-11.78L307.42-11.78L307.42-11.78Q303.42-6.66 303.42-4.22L303.42-4.22L303.42-4.22Q303.42-1.79 304.96-1.79L304.96-1.79L304.96-1.79Q307.71-1.79 311.94-6.78L311.94-6.78L311.94-6.78Q316.16-11.78 316.16-13.95L316.16-13.95L316.16-13.95Q315.14-14.53 313.60-16.90ZM329.34-20.22L329.34-20.22L329.34-20.22Q331.07-20.22 331.07-18.88L331.07-18.88L331.07-18.88Q331.07-18.50 330.88-18.11L330.88-18.11L330.88-18.11Q325.12-10.11 323.97-6.02L323.97-6.02L323.97-6.02Q338.88-20.93 342.08-20.93L342.08-20.93L342.08-20.93Q342.40-20.99 342.66-20.99L342.66-20.99L342.66-20.99Q344.45-20.99 344.45-19.39L344.45-19.39L344.45-19.39Q344.45-19.07 344.32-18.75L344.32-18.75L344.32-18.75Q344.19-18.43 341.76-15.30L341.76-15.30L341.76-15.30Q338.94-11.97 336.99-8.90L336.99-8.90L336.99-8.90Q335.04-5.82 335.04-3.78L335.04-3.78L335.04-3.78Q335.04-1.73 335.94-1.73L335.94-1.73L335.94-1.73Q338.75-1.73 345.73-9.47L345.73-9.47L345.73-9.47Q345.86-9.60 346.18-10.05L346.18-10.05L346.18-10.05Q347.14-11.20 347.33-11.20L347.33-11.20L347.33-11.20Q347.52-11.20 347.52-10.56L347.52-10.56L347.52-10.56Q347.52-9.92 346.62-8.90L346.62-8.90L346.62-8.90Q338.69 0.13 335.36 0.13L335.36 0.13L335.36 0.13Q332.22 0.13 332.22-3.33L332.22-3.33L332.22-3.33Q332.22-6.78 334.78-11.26L334.78-11.26L338.88-17.92L338.88-17.92Q334.53-14.72 331.14-10.91L331.14-10.91L331.14-10.91Q327.74-7.10 324.96-3.52L324.96-3.52L324.96-3.52Q322.18 0.06 321.73 0.06L321.73 0.06L321.73 0.06Q320.77 0.06 320.22-0.74L320.22-0.74L320.22-0.74Q319.68-1.54 319.68-2.72L319.68-2.72L319.68-2.72Q319.68-3.90 320.51-5.89L320.51-5.89L320.51-5.89Q321.34-7.87 322.62-10.69L322.62-10.69L318.78-6.66L318.78-6.66Q317.38-5.25 317.02-5.25L317.02-5.25L317.02-5.25Q316.67-5.25 316.67-5.66L316.67-5.66L316.67-5.66Q316.67-6.08 317.18-6.59L317.18-6.59L317.18-6.59Q319.55-8.96 321.28-11.14L321.28-11.14L321.28-11.14Q322.94-13.31 328.13-19.46L328.13-19.46L328.13-19.46Q328.70-20.22 329.34-20.22ZM341.25 7.42L341.25 7.42L341.25 7.42Q344.32 11.26 346.56 11.26L346.56 11.26L346.56 11.26Q350.21 11.26 354.43 5.44L354.43 5.44L354.43 5.44Q357.50 1.15 360.45-5.38L360.45-5.38L362.88-11.26L353.47-3.90L353.47-3.90Q349.12-0.51 346.50-0.51L346.50-0.51L346.50-0.51Q345.09-0.51 344.26-1.47L344.26-1.47L344.26-1.47Q343.42-2.43 343.42-3.65L343.42-3.65L343.42-3.65Q343.42-6.40 348.16-12.70L348.16-12.70L348.16-12.70Q352.90-19.01 355.07-19.01L355.07-19.01L355.07-19.01Q357.25-19.01 357.25-17.54L357.25-17.54L357.25-17.54Q357.25-16.96 351.58-10.91L351.58-10.91L351.58-10.91Q345.92-4.86 345.92-2.75L345.92-2.75L345.92-2.75Q345.92-1.92 347.01-1.92L347.01-1.92L347.01-1.92Q349.06-1.92 355.23-6.72L355.23-6.72L355.23-6.72Q361.41-11.52 364.54-14.66L364.54-14.66L364.54-14.66Q365.25-15.49 366.53-17.15L366.53-17.15L366.53-17.15Q367.74-18.56 369.22-18.56L369.22-18.56L369.22-18.56Q370.69-18.56 370.69-17.15L370.69-17.15L370.69-17.15Q370.69-16.90 367.81-12.61L367.81-12.61L367.81-12.61Q364.93-8.32 364.80-8.06L364.80-8.06L364.80-8.06Q362.82-4.22 358.72 3.14L358.72 3.14L358.72 3.14Q352.51 13.12 346.30 13.12L346.30 13.12L346.30 13.12Q344.26 13.12 342.72 11.36L342.72 11.36L342.72 11.36Q341.18 9.60 341.25 7.42Z" fill="#f7c61d"></path></g></g><style>text {
  font-size: 64px;
  font-family: Arial Black;
  dominant-baseline: central;
  text-anchor: middle;
}</style></svg>